<?xml version="1.0" standalone="no"?>
<!DOCTYPE svg PUBLIC "-//W3C//DTD SVG 20010904//EN"
 "http://www.w3.org/TR/2001/REC-SVG-20010904/DTD/svg10.dtd">
<svg version="1.0" xmlns="http://www.w3.org/2000/svg"
 width="600.000000pt" height="600.000000pt" viewBox="0 0 600.000000 600.000000"
 preserveAspectRatio="xMidYMid meet">

<g transform="translate(0.000000,600.000000) scale(0.100000,-0.100000)"
fill="#000000" stroke="none">
<path d="M2893 3890 c-110 -49 -112 -208 -3 -262 66 -34 133 -18 183 42 61 71
36 173 -53 218 -54 27 -73 27 -127 2z"/>
<path d="M695 3485 c-23 -23 -35 -45 -35 -63 0 -15 0 -281 0 -591 0 -501 2
-566 17 -591 33 -57 112 -77 164 -42 30 19 600 522 641 564 36 39 45 98 21
143 -16 31 -628 581 -673 605 -10 6 -37 10 -59 10 -33 0 -47 -7 -76 -35z"/>
<path d="M2319 3502 c-39 -27 -525 -457 -606 -538 -66 -65 -73 -75 -73 -111 0
-28 8 -51 28 -76 36 -48 638 -576 669 -588 38 -14 75 -11 111 11 63 38 62 33
62 637 0 341 -4 562 -10 585 -15 51 -70 98 -118 98 -20 0 -49 -8 -63 -18z m46
-652 c0 -392 -3 -499 -12 -496 -15 6 -562 489 -562 496 1 7 561 500 568 500 3
0 6 -225 6 -500z"/>
<path d="M2905 3506 c-16 -8 -43 -28 -60 -45 l-30 -32 -3 -577 c-3 -656 -6
-626 79 -670 74 -39 145 -18 197 58 l22 33 0 555 c0 544 0 557 -21 599 -14 29
-35 52 -63 68 -48 28 -77 31 -121 11z"/>
<path d="M3427 3489 c-70 -58 -67 -28 -67 -642 l0 -554 23 -43 c54 -103 196
-107 257 -8 19 32 20 52 20 591 0 618 2 599 -66 655 -54 45 -114 45 -167 1z
m117 -85 c14 -14 16 -79 16 -564 l0 -549 -22 -15 c-29 -20 -34 -20 -58 4 -20
20 -20 33 -20 564 l0 545 22 15 c28 20 43 20 62 0z"/>
<path d="M4023 3491 c-25 -18 -46 -45 -57 -72 -32 -80 -22 -96 233 -346 l226
-223 -222 -215 c-122 -119 -231 -231 -242 -249 -41 -66 -18 -154 51 -196 41
-25 114 -26 148 -4 14 9 125 116 247 238 l223 220 232 -231 c151 -150 243
-234 261 -238 126 -32 229 75 187 192 -6 15 -115 131 -243 256 l-232 228 213
208 c118 114 222 221 233 237 25 39 25 109 -1 152 -40 66 -129 92 -188 55 -15
-9 -125 -113 -244 -232 l-218 -216 -217 216 c-120 119 -230 223 -245 232 -43
26 -99 22 -145 -12z"/>
</g>
</svg>
